<svg xmlns="http://www.w3.org/2000/svg" width="1024" height="1024" viewBox="0 0 1024 1024">
    <circle r="512" cx="512" cy="512" fill="purple"></circle>
    <polygon points="0,1024 512,0 1024,1024" stroke="black" fill="green" stroke-width="1"></polygon>
    <polygon points="256,512 768,512 512,1024" stroke="green" fill="blue" stroke-width="1"></polygon>
    <polygon points="384,768 512,512 640,768" stroke="blue" fill="yellow" stroke-width="1"></polygon>
    <polygon points="512,768 448,640 576,640" stroke="yellow" fill="red" stroke-width="1"></polygon>
    <polygon points="480,704 512,640 544,704" stroke="red" fill="white" stroke-width="1"></polygon>
    <polygon points="496,672 528,672 512,704" stroke="white" fill="tomato" stroke-width="1"></polygon>
    <polygon points="512,672 520,688 504,688" stroke="tomato" fill="magenta" stroke-width="1"></polygon>
    <polygon points="516,680 512,688 508,680" stroke="magenta" fill="aqua" stroke-width="1"></polygon>
    <polygon points="514,684 510,684 512,680" stroke="aqua" fill="fuchsia" stroke-width="1"></polygon>
    <polygon points="512,688 508,680 516, 680" stroke="fuchsia" fill="yellowgreen" stroke-width="1"></polygon>
</svg>